<?xml version="1.0" ?><!DOCTYPE svg  PUBLIC '-//W3C//DTD SVG 1.1//EN'  'http://www.w3.org/Graphics/SVG/1.1/DTD/svg11.dtd'><svg enable-background="new 0 0 32 32" height="32px" id="Слой_1" version="1.1" viewBox="0 0 32 32" width="32px" xml:space="preserve" xmlns="http://www.w3.org/2000/svg" xmlns:xlink="http://www.w3.org/1999/xlink"><g id="Double_Arrow_Drop_Right"><path clip-rule="evenodd" d="M14.716,15.294L14.716,15.294l-9.97-9.991   c-0.634-0.66-1.748-0.162-1.723,0.734V25.98c-0.024,0.892,1.082,1.376,1.715,0.742l9.977-9.999   C15.11,16.328,15.11,15.688,14.716,15.294L14.716,15.294z M5.028,23.574V8.442l7.55,7.566L5.028,23.574z" fill="#121313" fill-rule="evenodd"/><path clip-rule="evenodd" d="M28.705,15.304L28.705,15.304L28.705,15.304l-9.97-9.991   c-0.634-0.66-1.748-0.162-1.723,0.734V25.99c-0.024,0.892,1.082,1.376,1.715,0.742l9.977-9.999   C29.098,16.338,29.098,15.698,28.705,15.304z M19.017,23.584V8.452l7.55,7.566L19.017,23.584z" fill="#121313" fill-rule="evenodd"/></g><g/><g/><g/><g/><g/><g/></svg>